#N canvas 0 0 1427 980 12;
#X obj 677 782 netsend -u -b;
#X msg 802 670 connect 127.0.0.1 8001;
#X obj 677 554 comport;
#X msg 621 475 devices;
#X msg 832 476 close;
#X msg 684 475 baud 115200 \, open 4;
#X obj 677 596 pdchoco/slip_parse;
#X obj 677 635 oscparse;
#X text 856 643 connexion;
#X msg 797 700 disconnect;
#X connect 1 0 0 0;
#X connect 2 0 6 0;
#X connect 3 0 2 0;
#X connect 4 0 2 0;
#X connect 5 0 2 0;
#X connect 6 0 7 0;
#X connect 7 0 0 0;
#X connect 9 0 0 0;
